<?xml version="1.0" encoding="UTF-8"?>
<svg id="_Слой_2" data-name="Слой 2" xmlns="http://www.w3.org/2000/svg" viewBox="0 0 72.72 61.68">
  <defs>
    <style>
      .cls-1 {
        fill-rule: evenodd;
      }

      .cls-1, .cls-2 {
        stroke-width: 0px;
      }
    </style>
  </defs>
  <g id="_Слой_1-2" data-name="Слой 1">
    <g>
      <path class="cls-2" d="M14.04,61.68c2.16,0,3.84-.96,4.92-2.28l-2.16-1.8c-.72.84-1.68,1.44-2.76,1.44-2.04,0-3.24-1.56-3.24-3.48,0-2.28,1.44-3.6,3.24-3.6,1.2,0,2.16.72,2.76,1.44l2.04-1.8c-1.32-1.56-3.12-2.28-4.8-2.28-4.08,0-6.24,2.76-6.24,6.24,0,3.96,2.76,6.12,6.24,6.12ZM22.8,61.56h3v-9.6h3.12v-2.52h-9.24v2.52h3.12v9.6ZM30.36,61.56h2.76v-3.96h1.68c2.76,0,4.56-1.32,4.56-3.96,0-2.4-1.32-4.2-4.32-4.2h-4.68v12.12ZM33.12,55.2v-3.24h1.44c1.2,0,1.8.72,1.8,1.56,0,1.08-.6,1.68-1.92,1.68h-1.32ZM46.68,61.68c3.6,0,6.24-2.52,6.24-6.12,0-3.84-2.64-6.24-6.24-6.24s-6.24,2.52-6.24,6.24,2.52,6.12,6.24,6.12ZM46.68,59.04c-1.92,0-3.24-1.56-3.24-3.48,0-2.04,1.32-3.6,3.24-3.6,1.8,0,3.24,1.56,3.24,3.6,0,1.92-1.44,3.48-3.24,3.48ZM54.6,61.56h2.76l4.56-7.32v7.32h2.88v-12.12h-2.64l-4.68,7.56v-7.56h-2.88v12.12Z"/>
      <path class="cls-2" d="M11.4,40.32c0-2.4-1.56-4.32-4.68-4.44v-.96h-2.04v.96c-3.12.12-4.68,2.04-4.68,4.44s1.56,4.08,4.68,4.2v1.08h2.04v-1.08c3.12-.12,4.68-1.8,4.68-4.2ZM2.04,40.32c0-1.44.96-2.52,2.76-2.64v5.16c-1.92-.12-2.76-1.2-2.76-2.52ZM6.72,42.84v-5.16c1.68.12,2.64,1.2,2.64,2.64,0,1.32-.96,2.4-2.64,2.52ZM13.92,35.28c0,1.8,0,3.96-.24,5.52-.24,1.8-.48,3-1.68,3h-.6l-.12,1.68c.36.12.84.24,1.2.24,2.04,0,2.76-1.44,3.12-4.08.12-1.2.24-2.88.36-4.56h2.64v8.52h2.04v-10.32h-6.72ZM21.96,45.6h2.16l.72-2.04h3.96l.72,2.04h2.16l-3.84-10.32h-2.04l-3.84,10.32ZM25.44,41.76l1.44-4.08,1.32,4.08h-2.76ZM33,45.6h2.16v-8.52h4.56v-1.8h-6.72v10.32ZM41.4,45.6h2.04v-6.36l2.52,4.44h1.32l2.52-4.44v6.36h2.04v-10.32h-2.04l-3.12,5.88h-.12l-3.12-5.88h-2.04v10.32ZM53.28,45.6h2.16l.72-2.04h3.96l.72,2.04h2.16l-3.96-10.32h-1.92l-3.84,10.32ZM56.64,41.76l1.44-4.08,1.44,4.08h-2.88ZM64.32,45.6h2.04v-4.08h4.2v4.08h2.16v-10.32h-2.16v4.44h-4.2v-4.44h-2.04v10.32Z"/>
      <polygon class="cls-1" points="33.96 23.16 35.88 21.96 37.92 23.28 37.8 27.48 33.96 27.48 33.96 23.16"/>
      <polygon class="cls-1" points="59.16 47.16 62.28 47.28 59.16 51.6 59.16 47.16"/>
      <polygon class="cls-1" points="20.76 24.24 27.48 27.48 27.48 18.72 35.64 14.64 35.64 8.28 27.48 12.36 27.48 10.32 35.64 6.36 35.64 0 20.76 7.32 20.76 24.24"/>
      <polygon class="cls-1" points="51.12 24.24 44.4 27.48 44.4 18.72 36.12 14.64 36.12 8.28 44.4 12.36 44.4 10.32 36.12 6.36 36.12 0 51.12 7.32 51.12 24.24"/>
    </g>
  </g>
</svg>