<?xml version="1.0" encoding="UTF-8"?>
<svg id="_Слой_2" data-name="Слой 2" xmlns="http://www.w3.org/2000/svg" viewBox="0 0 105.36 89.4">
  <defs>
    <style>
      .cls-1 {
        fill: #046a2f;
      }

      .cls-1, .cls-2 {
        fill-rule: evenodd;
      }

      .cls-1, .cls-2, .cls-3 {
        stroke-width: 0px;
      }

      .cls-2 {
        fill: #0e9134;
      }
    </style>
  </defs>
  <g id="_Слой_1-2" data-name="Слой 1">
    <path class="cls-3" d="M20.4,89.4c3.12,0,5.52-1.44,7.08-3.24l-3-2.64c-1.08,1.2-2.52,1.92-4.08,1.92-2.88,0-4.8-2.16-4.8-4.92,0-3.24,2.16-5.16,4.8-5.16,1.68,0,3,.96,3.96,2.04l3-2.64c-1.92-2.28-4.56-3.36-6.96-3.36-5.88,0-9.12,4.08-9.12,9.12,0,5.76,4.08,8.88,9.12,8.88ZM33.12,89.28h4.2v-13.92h4.68v-3.72h-13.44v3.72h4.56v13.92ZM44.04,89.28h4.08v-5.76h2.4c3.96,0,6.48-1.92,6.48-5.76,0-3.6-1.92-6.12-6.24-6.12h-6.72v17.64ZM48.12,79.92v-4.68h1.92c1.92,0,2.76,1.08,2.76,2.4,0,1.44-.96,2.28-2.76,2.28h-1.92ZM67.68,89.4c5.28,0,9-3.6,9-9s-3.72-9-9-9-9.12,3.72-9.12,9,3.72,9,9.12,9ZM67.68,85.56c-2.76,0-4.8-2.28-4.8-5.16s2.04-5.16,4.8-5.16,4.68,2.28,4.68,5.16-1.92,5.16-4.68,5.16ZM79.2,89.28h4.08l6.6-10.68v10.68h4.08v-17.64h-3.84l-6.72,10.92v-10.92h-4.2v17.64Z"/>
    <path class="cls-3" d="M16.56,58.44c0-3.48-2.28-6.24-6.72-6.36v-1.44h-3v1.44c-4.44.12-6.84,2.88-6.84,6.36s2.4,5.88,6.84,6.12v1.56h3v-1.56c4.44-.24,6.72-2.64,6.72-6.12ZM3,58.44c0-2.04,1.32-3.6,3.96-3.84v7.44c-2.64-.12-3.96-1.68-3.96-3.6ZM9.72,62.04v-7.44c2.52.24,3.84,1.8,3.84,3.84,0,1.92-1.32,3.36-3.84,3.6ZM20.28,51.12c0,2.52-.12,5.64-.48,8.04-.24,2.64-.72,4.44-2.28,4.44-.24,0-.6,0-.84-.12l-.24,2.52c.36.12,1.08.24,1.68.24,3,0,4.08-2.16,4.56-5.76.24-1.92.36-4.32.48-6.72h3.84v12.36h3v-15h-9.72ZM31.92,66.12h3.12l1.08-3h5.76l.96,3h3.12l-5.52-15h-2.88l-5.64,15ZM36.96,60.6l1.92-5.88h.12l2.04,5.88h-4.08ZM48,66.12h3v-12.36h6.6v-2.64h-9.6v15ZM60,66.12h3v-9.36l3.6,6.48h1.92l3.72-6.48v9.36h3v-15h-3l-4.56,8.52h-.12l-4.56-8.52h-3v15ZM77.28,66.12h3.12l.96-3h5.76l1.08,3h3.12l-5.64-15h-2.88l-5.52,15ZM82.2,60.6l2.04-5.88,2.04,5.88h-4.08ZM93.24,66.12h3v-5.88h6.12v5.88h3v-15h-3v6.48h-6.12v-6.48h-3v15Z"/>
    <polygon class="cls-1" points="49.32 33.6 52.08 31.8 54.96 33.6 54.96 39.72 49.32 39.72 49.32 33.6"/>
    <polygon class="cls-2" points="85.68 68.4 90.24 68.52 85.8 74.88 85.68 68.4"/>
    <polygon class="cls-2" points="30.12 35.16 39.84 39.84 39.84 27 51.72 21.24 51.72 12 39.84 17.88 39.84 15 51.72 9.12 51.72 0 30.12 10.56 30.12 35.16"/>
    <polygon class="cls-1" points="74.16 35.16 64.44 39.84 64.44 27 52.44 21.24 52.44 12 64.44 17.88 64.44 15 52.44 9.12 52.44 0 74.16 10.56 74.16 35.16"/>
  </g>
</svg>