<?xml version="1.0" encoding="UTF-8"?>
<svg id="_Слой_2" data-name="Слой 2" xmlns="http://www.w3.org/2000/svg" viewBox="0 0 72.72 26.76">
  <defs>
    <style>
      .cls-1, .cls-2 {
        fill: #fff;
        stroke-width: 0px;
      }

      .cls-2 {
        fill-rule: evenodd;
      }
    </style>
  </defs>
  <g id="_Слой_1-2" data-name="Слой 1">
    <g>
      <path class="cls-1" d="M14.04,26.76c2.16,0,3.84-.96,4.92-2.28l-2.16-1.8c-.72.84-1.68,1.44-2.76,1.44-2.04,0-3.24-1.56-3.24-3.48,0-2.28,1.44-3.6,3.24-3.6,1.2,0,2.16.72,2.76,1.44l2.16-1.8c-1.44-1.56-3.24-2.28-4.92-2.28-3.96,0-6.24,2.76-6.24,6.24,0,3.96,2.76,6.12,6.24,6.12ZM22.92,26.64h2.88v-9.6h3.12v-2.52h-9.24v2.52h3.24v9.6ZM30.36,26.64h2.88v-3.96h1.56c2.76,0,4.56-1.32,4.56-3.96,0-2.4-1.32-4.2-4.32-4.2h-4.68v12.12ZM33.24,20.28v-3.24h1.32c1.2,0,1.8.72,1.8,1.56,0,1.08-.6,1.68-1.92,1.68h-1.2ZM46.68,26.76c3.6,0,6.24-2.52,6.24-6.24s-2.64-6.12-6.24-6.12-6.24,2.52-6.24,6.12,2.52,6.24,6.24,6.24ZM46.68,24.12c-1.92,0-3.24-1.56-3.24-3.6,0-1.92,1.32-3.48,3.24-3.48,1.8,0,3.24,1.56,3.24,3.48,0,2.04-1.44,3.6-3.24,3.6ZM54.6,26.64h2.76l4.56-7.32h.12v7.32h2.76v-12.12h-2.64l-4.68,7.56v-7.56h-2.88v12.12Z"/>
      <path class="cls-1" d="M11.4,5.4c0-2.4-1.56-4.32-4.68-4.44v-.96h-2.04v.96C1.56,1.08,0,3,0,5.4s1.56,4.08,4.68,4.2v1.08h2.04v-1.08c3.12-.12,4.68-1.8,4.68-4.2ZM2.04,5.4c0-1.44.96-2.52,2.76-2.64v5.16c-1.8-.12-2.76-1.2-2.76-2.52ZM6.72,7.92V2.76c1.8.12,2.64,1.2,2.64,2.64,0,1.32-.84,2.4-2.64,2.52ZM13.92.36c0,1.8,0,3.96-.24,5.52-.24,1.8-.48,3-1.68,3h-.48l-.24,1.68c.36.12.84.24,1.2.24,2.04,0,2.76-1.44,3.12-4.08.12-1.2.24-2.88.36-4.56h2.64v8.52h2.04V.36h-6.72ZM22.08,10.68h2.04l.72-2.04h3.96l.72,2.04h2.16L27.84.36h-1.92l-3.84,10.32ZM25.44,6.84l1.44-4.08,1.44,4.08h-2.88ZM33.12,10.68h2.04V2.16h4.56V.36h-6.6v10.32ZM41.4,10.68h2.04v-6.36l2.52,4.44h1.32l2.52-4.44v6.36h2.04V.36h-2.04l-3.12,5.88h-.12l-3.12-5.88h-2.04v10.32ZM53.28,10.68h2.16l.72-2.04h3.96l.72,2.04h2.16L59.16.36h-2.04l-3.84,10.32ZM56.76,6.84l1.32-4.08,1.44,4.08h-2.76ZM64.32,10.68h2.04v-4.08h4.32v4.08h2.04V.36h-2.04v4.44h-4.32V.36h-2.04v10.32Z"/>
      <polygon class="cls-2" points="59.16 12.24 62.28 12.36 59.16 16.68 59.16 12.24"/>
    </g>
  </g>
</svg>